/* XPM */
static char * enemym_xpm[] = {
"50 50 252 2",
"  	c #189BA8",
". 	c #25999A",
"+ 	c #37A6A5",
"@ 	c #4BA89B",
"# 	c #98C9CB",
"$ 	c #AAC6CB",
"% 	c #DAE7F2",
"& 	c #E8ECF3",
"* 	c #D8E5E8",
"= 	c #C9E2E5",
"- 	c #ECF4F8",
"; 	c #E5E7EA",
"> 	c #BAE1E1",
", 	c #239AA4",
"' 	c #28A4A9",
") 	c #1BA4A9",
"! 	c #77B5BA",
"~ 	c #B9D4DA",
"{ 	c #D2E4DF",
"] 	c #B1D2D3",
"^ 	c #D4D8DA",
"/ 	c #70C8C8",
"( 	c #49A5AB",
"_ 	c #349295",
": 	c #54A5B6",
"< 	c #E1EAED",
"[ 	c #C3D5DD",
"} 	c #B8C9D4",
"| 	c #A9CAD5",
"1 	c #85C8C5",
"2 	c #C9DEF1",
"3 	c #198996",
"4 	c #268A9A",
"5 	c #528D98",
"6 	c #BCDBE5",
"7 	c #D5D7E5",
"8 	c #4DC1C0",
"9 	c #88B4C4",
"0 	c #67AFB2",
"a 	c #2A95AA",
"b 	c #138B95",
"c 	c #C2CDD8",
"d 	c #2DA79D",
"e 	c #2FB3AF",
"f 	c #4EADB2",
"g 	c #7AB7C5",
"h 	c #98B3BB",
"i 	c #9AB6C5",
"j 	c #29A5B7",
"k 	c #35A7B9",
"l 	c #C9DBE6",
"m 	c #89B6B8",
"n 	c #B8C7CC",
"o 	c #7BA9B6",
"p 	c #139A9A",
"q 	c #189797",
"r 	c #4A9BA4",
"s 	c #0D9595",
"t 	c #5391A2",
"u 	c #088688",
"v 	c #127A85",
"w 	c #0C838C",
"x 	c #13848C",
"y 	c #097688",
"z 	c #0B8696",
"A 	c #0F847F",
"B 	c #1A7788",
"C 	c #146C7A",
"D 	c #15747B",
"E 	c #0B747B",
"F 	c #09777A",
"G 	c #147483",
"H 	c #096877",
"I 	c #125B6D",
"J 	c #146374",
"K 	c #09666D",
"L 	c #0C5B6B",
"M 	c #126A82",
"N 	c #135C72",
"O 	c #196879",
"P 	c #0C6373",
"Q 	c #12626F",
"R 	c #075866",
"S 	c #0C5464",
"T 	c #135263",
"U 	c #0C546B",
"V 	c #15546B",
"W 	c #0E535D",
"X 	c #0C495D",
"Y 	c #124B5E",
"Z 	c #124B63",
"` 	c #0C4A62",
" .	c #084759",
"..	c #19476A",
"+.	c #0E4463",
"@.	c #0D435B",
"#.	c #134264",
"$.	c #13435C",
"%.	c #0D3C5A",
"&.	c #1B556B",
"*.	c #124255",
"=.	c #0C3B55",
"-.	c #1A455A",
";.	c #153965",
">.	c #193858",
",.	c #0A354C",
"'.	c #123A55",
").	c #496677",
"!.	c #59768B",
"~.	c #133553",
"{.	c #13334D",
"].	c #1A3D55",
"^.	c #123C5B",
"/.	c #0C3659",
"(.	c #0D3553",
"_.	c #284966",
":.	c #37566A",
"<.	c #385A77",
"[.	c #285169",
"}.	c #063658",
"|.	c #304E56",
"1.	c #62747B",
"2.	c #C8D6D9",
"3.	c #627A85",
"4.	c #374957",
"5.	c #243A49",
"6.	c #69859A",
"7.	c #0F2B48",
"8.	c #7B8B94",
"9.	c #ADBACB",
"0.	c #A7B9C7",
"a.	c #1A3649",
"b.	c #7C9398",
"c.	c #4F546E",
"d.	c #485C64",
"e.	c #96A6AC",
"f.	c #6B7D83",
"g.	c #8CA4A9",
"h.	c #859AA8",
"i.	c #A4ADB6",
"j.	c #98AAB7",
"k.	c #A7B6BD",
"l.	c #727272",
"m.	c #48565A",
"n.	c #5E7579",
"o.	c #4DB0C9",
"p.	c #37B5C6",
"q.	c #2DB1C3",
"r.	c #67A8B9",
"s.	c #85A4B7",
"t.	c #79A3AB",
"u.	c #7896A6",
"v.	c #477275",
"w.	c #675873",
"x.	c #1495AB",
"y.	c #85959A",
"z.	c #83A19E",
"A.	c #8B9DA3",
"B.	c #748689",
"C.	c #72847B",
"D.	c #6E8486",
"E.	c #677679",
"F.	c #636D76",
"G.	c #63676B",
"H.	c #596A6D",
"I.	c #536965",
"J.	c #54656A",
"K.	c #3A708C",
"L.	c #108BA6",
"M.	c #107F9A",
"N.	c #357888",
"O.	c #5E7075",
"P.	c #5B6C72",
"Q.	c #55696D",
"R.	c #566B72",
"S.	c #097593",
"T.	c #536366",
"U.	c #2A7686",
"V.	c #0A6785",
"W.	c #2A6B82",
"X.	c #556575",
"Y.	c #38687A",
"Z.	c #165A77",
"`.	c #0C5777",
" +	c #155281",
".+	c #275779",
"++	c #59666D",
"@+	c #0C5C72",
"#+	c #144A74",
"$+	c #0C4C6D",
"%+	c #0D4B71",
"&+	c #93ADC4",
"*+	c #F6F8FB",
"=+	c #D2DCE3",
"-+	c #3A4549",
";+	c #555B64",
">+	c #15426B",
",+	c #0D446B",
"'+	c #4A6F8E",
")+	c #DBDEE4",
"!+	c #302324",
"~+	c #4A6669",
"{+	c #425B76",
"]+	c #154473",
"^+	c #123D63",
"/+	c #083966",
"(+	c #333C3B",
"_+	c #173C71",
":+	c #0E3C62",
"<+	c #EFEFEF",
"[+	c #50615F",
"}+	c #132F5B",
"|+	c #224A75",
"1+	c #959CB5",
"2+	c #A98C91",
"3+	c #92878D",
"4+	c #AA979C",
"5+	c #B1AEB3",
"6+	c #D5C7CA",
"7+	c #E5DCE1",
"8+	c #6B7C8C",
"9+	c #597C98",
"0+	c #545559",
"a+	c #6D4C4E",
"b+	c #7093AE",
"c+	c #4D3D44",
"d+	c #382324",
"e+	c #33191A",
"f+	c #583336",
"g+	c #916B67",
"h+	c #9A7C86",
"i+	c #472326",
"j+	c #461E25",
"k+	c #643940",
"l+	c #468795",
"m+	c #543232",
"n+	c #6C3839",
"o+	c #854E4F",
"p+	c #9C857F",
"q+	c #CAB6B3",
"r+	c #1D566B",
"s+	c #D0B5B5",
"t+	c #E1D2D9",
"u+	c #E1BBB8",
"v+	c #8999B0",
"w+	c #253B53",
"x+	c #296479",
"y+	c #A1C9E2",
"z+	c #355A84",
"A+	c #1A4876",
"B+	c #154B79",
"C+	c #194E7B",
"    . + @ # $ % & * = = - ; > @ , ' ,   ' ' ) ) ) + ! ~ * { { $ ] * ^ * ~ # / ( ' , , , ) ) ' '     ",
"_ : ] % < & [ $ } | 1 1 # $ 2 2 2 ] ! _ . 3 4 4 5 6 7 7 $ ! / 8 9 / 0 1 ~ 7 * ~ ( a b b 4 4 4 b 4 4 ",
"c [ [ } [ | 0 d + e ) d e d f g $ $ = ~ > h i $ 6 ~ | 1 e e j k j ' ' k f 0 1 $ l ] m m $ n $ | ~ { ",
"o ! + _ ( f . p p p q 3 q p q . ' . ( : 0 r + f + _ ( ( q p s p s s q p p s s . t _ q + ! ! ( . r : ",
"u b v 3 w b v v w v x y u u w u x w u x 3 b z z w q b u u u x A A A u w x 3 w u w b b b b z w 3 u w ",
"v B C D E F F D G C G E H C D F F F F F F F E D E E v G G C D E E D G C E E E D D F F F D D F E E E ",
"I J K K D J K K H K L I I I J H M J N O J P K H D K C J L O O P J J J P K H K Q K P J J K K P J K Q ",
"I R P L S I N L S Q S T I L L T R R R L R I N U U N S Q K R L I R L I I L L N N J I L L L I L U V V ",
"T W S R U V X Y T X W T Y Y Y T Y T V Z Z ` T T X T W  .S S X T Z T I U U S S W S S U S S T Z Y Z Y ",
"..Z Z `  . .V  .+.` @.@.....+.` X X ` +.#.$.$.Z ....%.&.+.+.V +.S X $.Y Y Y Y $.Z Z Z Z Z Z #.$.$.$.",
"Z @.*.=.-.$.$.=.=.$.*.=.=.=.=.*.;.>.%.@.X @.@.@.=.$.$.=.Y ,.*.*.%.@.$.$.=.@.+.+.=.'.*.*.=.@.$.#.$.$.",
"%.'.).!.'.$.,.@.~.{.{.{.].-.~.].^.^.>.].].>.~.>.^./.'.'.(._.~.:.'.'.'.].'.'.].{.<.[.].'.>.$.%.}.].~.",
"|.1.2.* n 3.4.5.~.{.6.6.>.7.{.{.,.,.4.8.9.0.!.-.{.{.].{.{.7.a.b.c.a.,.,.{.a.d.6.l n e.f.:.5.a.a.>.'.",
"} 2.2.% } | } 9.h 0.% % $ g.h.i.9.n 2.* * 2.2.2.j.j.n e.i.j.k.l.m.m.n.h.h i.n { [ ~ [ l l ~ 0.h 0.h ",
": o.o.p.q.j p.e j j j k k k k o.o.k j j j f : r.s.o t.t.o t.u.v.).c.w.!.r k p.p.j j q.p.p.p.p.q.p.k ",
"x.x.x.x.x., : r.t.u.b.g.t.t.g.y.z.z.A.y.y.y.B.C.f.f.D.E.1.F.E.G.H.I.I.I.J.K.4 x.x.x.x.x.x.x.x.x.x.x.",
"L.z M.L.z N.b.D.f.E.E.O.E.F.F.E.E.E.F.P.H.Q.P.O.P.P.P.Q.P.Q.H.P.P.P.H.P.P.R.v.v.z L.L.M.L.z z L.z z ",
"y S.S.S.y N.1.C.E.F.P.J.Q.O.Q.H.J.H.Q.H.H.P.P.J.J.J.T.J.J.Q.H.R.Q.Q.Q.H.H.R.R.v.U.U.y S.S.S.y S.S.S.",
"H V.V.V.V.W.8.i.j.y.D.f.R.P.R.R.R.R.J.H.P.P.O.P.P.H.H.O.J.P.Q.J.J.J.J.T.J.H.H.X.X.Y.O H H M H V.V.V.",
"Z.`.`. +V..+0.* - & n 9.k.y.1.1.P.P.J.Q.Q.J.H.J.H.++J.P.P.J.H.Q.J.J.Q.T.T.T.++T.G.X.Y.@+`.`.`.`.`.`.",
"#+`.$+%+%+&.&+* & *+- - < * =+A.P.1.P.Q.J.J.T.m.-+;+T.T.P.d.P.Q.H.H.Q.Q.J.J.T.J.T.J.).[.$+$+%+$+%+%+",
">+$+,+>+,++.'+~ )+- - - - *+- e.f.8.B.O.Q.H.T.-+y.!+H.P.J.P.J.H.++J.Q.Q.Q.J.Q.Q.~+Q.X.{+..$+%+>+>+>+",
"]+,++.>+^+/+..u.n n l * =+* )+i.k.0.e.8.E.F.H.m.(+-+T.J.O.Q.P.J.H.J.J.Q.H.T.J.R.J.Q.J.X._.>+#.>+#.^+",
"_+>+%.^.;./+%._.s.i 0.0.n 2.2.& - * c k.A.f.1.F.G.G.F.J.P.P.P.H.P.J.J.H.++;+;+J.F.;+Q.~+:.>.^+:+^+^+",
"^+^+^+^.^.^.}.^+:.t.c % & <+- - *+- < *+- 2.h 8.f.f.P.O.P.P.F.++H.H.P.P.J.T.m.T.H.Q.~+[+d.(.;.=.^+:+",
"^+}.:+%.}.^+^+/./.u.6 7 7 ~ 7 l ^ < ; <+*+*+& c g.A.8.D.f.E.T.F.1.Q.T.P.P.m.d.T.G.;+~+;+X.;./+]+^.^+",
";.}+_+;.|+;.}+}+}.{.1+2+2+2+2+2+3+4+4+5+6+7+- - & [ n e.g.b.E.O.P.f.n.P.P.1.8.E.T.P.d.m.h.|+;.^+'+8+",
"9+..^+>+/+}.^+;._+}+_.i g.l.0+a+0+l.3+4+4+3+4+5+9.c ^ < * h e.b.b.b.n.P.P.8.A.f.d.~+m.m.y.:.h.y.7 < ",
"l j.6.b+).{+{+'+..<.8.X.8.k.c+d+d+e+e+d+f+0+l.g+h+3+3+5+* < c e.A.g.8.P.Q.y.y.P.d.;+m.0+3.H.~ * ] ] ",
"^ ^ )+% % 7 7 * l [ l 2 ] | k.F.d+d+d+d+d+i+i+i+j+j+k+a+5+* % c e.g.A.Q.P.A.y.J.T.0+|.4._ <.4 t r r ",
"o 5 ! t.o r.! l+l+r.q b b x 1+w.j+j+i+i+m+m+m+m+m+f+2+6+*+<+- < =+i.y.B.8.e.B.J.m.-+|.<.w W.y S.v G ",
"y v 4 B G y y y y y V.H H u.l.n+f+k+a+n+n+a+a+o+p+q+6+<+<+*+& < * c k.} k.$ D.T.X.T.m.r+@+I K P P P ",
"L N J S L L R @+R @+`.$+..} q+g+o+o+o+o+a+g+q+s+t+6+*+*+- & < 7 ^ 2.n n } k.P.-+d.P.f.P.|.Y S R S S ",
"` ` Z Z Z Z #... . .` ` -.j.6+u+q+s+q+s+u+s+s+6+; ; < * * 2.c 2.n n n h j.u.).X.m.4.T.E.1.:.-. .X @.",
"@.@.%.$.=.}.%.}.].'.(.'.].|.c ^ 7+t+^ ^ ^ )+< * * l [ ~ | | 0.i 0.1+1+v+6.4.a.v.|.5.5.-+4.4.w+].=.=.",
"(.'.].>.=.=.@.%./././.>.].6.6.v+i $ } ~ c c } 9.9.0.0.0.&+&+s.s.b+b+6.).|.w+7.a.}.=.'.{.,.'.=.%.~.~.",
"[.:.[.{.{.~.7.>.(.~.{.{.8+6.!.8+6.6.6.b+b+b+o o h.h &+h &+&+s.i u.3.d.X.w+7.}+}+/.(.}+~.>.>.~.~.'.~.",
"N.l+t '+'+'+:.{+].a.7.).!.6.6.s.i.k.k.$ ~ ] # m 9 g r.r r + + f i 0.i i {+~./.^.~.{.>._.Y.!.9+6.N.N.",
"P C O O x+N.N.l+N.Y.5 5 b+o | s.&+y+r.l+: k 3 b z y z w S.v B M F E v 4 N.l+N.x+x+N.N.U.N.U.O J J @+",
"U $+U N @+R Q Q O U.W.W.J J B C C B v G G G y V.H C M H H H H B G P P R @+J O U.O O N @+@+L R @+.+Z.",
"x+r+V &.r+r+r+r+V V V V &.r+x+W.Z.I U U L @+U U U U U U U I U U r+x+x+x+V ` S L V r+x+x+W.x+x+r+V T ",
"@. . .@.@.@.Z V r+&.V &.r+&.Z @.` ` ` ` ` ` ` `  .` `  . .` ` ` X Z &..+x+x+x+W.x+x+r+Z #.Z ..Z `  .",
"=.%.@.@.%.%.@.#.*.*.@.@.@.@.@.@.@.@.=.=.@.%.%.=.%.$.$.@.@.@.@.$.X X X Y Z $.$.@.Z #.@.@.%.@.@.@.@.@.",
"=.=.=.=.=.%.=.=.=.=.=.=.=.=.=.@.=.=.=.=.=.(.(.(.~.'.(.(.'.'.=.=.@.@.@.@.%.%.$.$.%.%.=.%.=.@.%.%.=.=.",
"=.=.=.=.=.*.=.=.^.'.=.^.$.^.=.=.=.=.'.'.(.(.(.(.(.~.(.(.'.=.=.^.^.^.^.%.=.=.%.%.$.$.=.^.(.^.=.^.'.=.",
"=.=.=.=.=.=.=.=.=.(.%.^.^.^.^.^.%.%.^.^./.%.%.%./.^.^.^.^./.%.#./.^.^.^.$.#.@.@.=.=.=.>.'.>.=.'.^.^.",
"%.%.%.%.%.%.%.%.%.%.^+^.%./.:+#.#.#.^+^+^+^+^+^+^+^+^+^+..^+^+:+^.^.%.%.:+:+%./.$.%.%.%.^.(.%.^.=.%.",
"#.^+^+#.>+>+>+#.#.#.#.#.>+>+>+>+>+>+>+>+>+>+>+>+>+#.>+|+z+.+A+^+^+#.#.#.#.#.#...#.:+#.#...^+#.#.%.#.",
"#.]+]+>+B+B+>+:.z+<..+_+]+A+]+ +B+B+B+B+B+B+B+B+]+z+'+s.&+9+z+.+|+<.[.A+C+C+#.B+]+]+#+#+#+#+#+>+^+>+",
"#+A+A+#+C+ +'+&+2 6 $ b+'+K..+C+C+C+C+C+C+C+C+B+9+| c < * l | u.b+9.i b+'+'+.+B+B+B+B+C+C+B+#+#+A+C+"};
